<?xml version="1.0" encoding="utf-8"?>
<!-- Generator: Adobe Illustrator 25.2.0, SVG Export Plug-In . SVG Version: 6.00 Build 0)  -->
<svg version="1.1" id="Layer_1" xmlns="http://www.w3.org/2000/svg" xmlns:xlink="http://www.w3.org/1999/xlink" x="0px" y="0px"
	 viewBox="0 0 3000 3000" style="enable-background:new 0 0 3000 3000;" xml:space="preserve">
<style type="text/css">
	.st0{fill-rule:evenodd;clip-rule:evenodd;fill:#FFFFFF;}
	.st1{clip-path:url(#SVGID_2_);fill:#DB0707;}
	.st2{clip-path:url(#SVGID_4_);fill:#AA0911;}
	.st3{clip-path:url(#SVGID_6_);fill:url(#SVGID_7_);}
	.st4{clip-path:url(#SVGID_9_);fill:url(#SVGID_10_);}
	.st5{clip-path:url(#SVGID_12_);fill:url(#SVGID_13_);}
	.st6{clip-path:url(#SVGID_15_);fill:url(#SVGID_16_);}
	.st7{clip-path:url(#SVGID_18_);fill:url(#SVGID_19_);}
	.st8{clip-path:url(#SVGID_21_);fill:url(#SVGID_22_);}
	.st9{clip-path:url(#SVGID_24_);fill:url(#SVGID_25_);}
	.st10{clip-path:url(#SVGID_27_);fill:url(#SVGID_28_);}
	.st11{clip-path:url(#SVGID_30_);fill:url(#SVGID_31_);}
	.st12{clip-path:url(#SVGID_33_);fill:url(#SVGID_34_);}
	.st13{clip-path:url(#SVGID_36_);fill:url(#SVGID_37_);}
	.st14{clip-path:url(#SVGID_39_);fill:url(#SVGID_40_);}
	.st15{clip-path:url(#SVGID_42_);fill:url(#SVGID_43_);}
	.st16{clip-path:url(#SVGID_45_);fill:url(#SVGID_46_);}
	.st17{clip-path:url(#SVGID_48_);fill:#AA0911;}
	.st18{clip-path:url(#SVGID_50_);fill:#DB0707;}
	.st19{fill:none;}
	.st20{fill:#04A316;}
	.st21{font-family:'Bauhaus93';}
	.st22{font-size:98px;}
	.st23{fill-rule:evenodd;clip-rule:evenodd;fill:none;}
</style>
<rect class="st0" width="3000" height="3000"/>
<g>
	<defs>
		<path id="SVGID_1_" d="M1741.9,1513.8V1654c0,56.8-46.5,103.3-103.3,103.3h-103.3v-154.9
			C1580.1,1540.1,1648.9,1510.5,1741.9,1513.8"/>
	</defs>
	<clipPath id="SVGID_2_">
		<use xlink:href="#SVGID_1_"  style="overflow:visible;"/>
	</clipPath>
	<rect x="1535.3" y="1510.5" class="st1" width="206.6" height="246.7"/>
</g>
<g>
	<defs>
		<path id="SVGID_3_" d="M1735.7,1519.8V1654c0,53.4-43.7,97.1-97.1,97.1h-97.1v-97.6h30.1c36.8,0,67-30.1,67-67v-53.2
			C1669.5,1522.8,1702.7,1519.2,1735.7,1519.8"/>
	</defs>
	<clipPath id="SVGID_4_">
		<use xlink:href="#SVGID_3_"  style="overflow:visible;"/>
	</clipPath>
	<rect x="1541.5" y="1519.2" class="st2" width="194.2" height="231.9"/>
</g>
<g>
	<defs>
		<path id="SVGID_5_" d="M1751.9,1479.8h-9.9v23.1c-73.6-2.7-146.2,14.4-206.6,48.4v-154.9v0c0-0.7,0-1.4,0-2l0-0.2
			c0-0.7,0.1-1.4,0.1-2c0-0.7,0.1-1.4,0.2-2l0-0.2c0.1-0.7,0.1-1.3,0.2-2l0-0.1c0.1-0.6,0.2-1.3,0.3-1.9l0-0.3
			c0.1-0.6,0.2-1.2,0.3-1.8l0-0.2c0.1-0.6,0.2-1.2,0.4-1.8l0.1-0.3c0.1-0.6,0.3-1.1,0.4-1.7l0.1-0.3c0.1-0.6,0.3-1.1,0.5-1.7
			l0.1-0.4c0.2-0.5,0.3-1.1,0.5-1.6l0.1-0.4c0.2-0.5,0.3-1,0.5-1.5l0.2-0.5c0.2-0.5,0.3-0.9,0.5-1.4c0.1-0.2,0.2-0.4,0.2-0.6
			c0.2-0.4,0.3-0.9,0.5-1.3c0.1-0.2,0.2-0.4,0.3-0.6c0.2-0.4,0.4-0.8,0.5-1.2c0.1-0.3,0.2-0.5,0.4-0.8c0.2-0.4,0.4-0.8,0.5-1.2
			c0.1-0.2,0.2-0.5,0.3-0.7c0.2-0.4,0.4-0.7,0.5-1.1c0.2-0.3,0.3-0.6,0.5-1c0.2-0.3,0.3-0.6,0.5-1c0.2-0.3,0.3-0.6,0.5-0.9
			c0.2-0.3,0.3-0.6,0.5-0.8c0.2-0.4,0.4-0.7,0.7-1.1c0.1-0.2,0.3-0.4,0.4-0.7c0.3-0.4,0.5-0.9,0.8-1.3c0.1-0.2,0.2-0.3,0.3-0.5
			c0.3-0.4,0.5-0.8,0.8-1.2l0.3-0.4c0.4-0.5,0.8-1.1,1.2-1.6l0.2-0.2c0.3-0.4,0.6-0.9,1-1.3l0.1-0.1c0.5-0.6,1-1.3,1.5-1.9l0-0.1
			c0.9-1.1,1.9-2.2,2.8-3.3c38.4-13.3,83.6-13.1,123.3,3.7C1737.6,1375.9,1766.4,1429.5,1751.9,1479.8"/>
	</defs>
	<clipPath id="SVGID_6_">
		<use xlink:href="#SVGID_5_"  style="overflow:visible;"/>
	</clipPath>
	<linearGradient id="SVGID_7_" gradientUnits="userSpaceOnUse" x1="1650.8759" y1="1250.9319" x2="1650.8759" y2="1828.0018">
		<stop  offset="0" style="stop-color:#045304"/>
		<stop  offset="0.2233" style="stop-color:#075604"/>
		<stop  offset="0.4043" style="stop-color:#116005"/>
		<stop  offset="0.5704" style="stop-color:#217107"/>
		<stop  offset="0.7277" style="stop-color:#38890A"/>
		<stop  offset="0.8773" style="stop-color:#55A80D"/>
		<stop  offset="1" style="stop-color:#73C710"/>
	</linearGradient>
	<rect x="1535.3" y="1333.9" class="st3" width="231.1" height="217.4"/>
</g>
<g>
	<defs>
		<path id="SVGID_8_" d="M1535.3,1602.4v-191.9c0-56.8,46.5-103.3,103.3-103.3h42.8h60.5h243.5v103.3c0,56.8-46.5,103.3-103.3,103.3
			h-140.2C1648.9,1510.5,1580.1,1540.1,1535.3,1602.4"/>
	</defs>
	<clipPath id="SVGID_9_">
		<use xlink:href="#SVGID_8_"  style="overflow:visible;"/>
	</clipPath>
	<linearGradient id="SVGID_10_" gradientUnits="userSpaceOnUse" x1="1288.1877" y1="1454.759" x2="2075.2493" y2="1454.759">
		<stop  offset="0" style="stop-color:#0131B8"/>
		<stop  offset="0.1444" style="stop-color:#033BBD"/>
		<stop  offset="0.3872" style="stop-color:#0755CA"/>
		<stop  offset="0.6964" style="stop-color:#0D7FDF"/>
		<stop  offset="1" style="stop-color:#15AFF7"/>
	</linearGradient>
	<rect x="1535.3" y="1307.2" class="st4" width="450.1" height="295.2"/>
</g>
<g>
	<defs>
		<path id="SVGID_11_" d="M1541.6,1584.1v-173.6H1830c28.4,0,51.6-23.2,51.6-51.7v-45.4h97.5v97c0,53.3-43.7,97-97,97H1742
			c-58.4-2-117.5,8.6-165.4,43.9C1563.6,1560.9,1552,1571.9,1541.6,1584.1"/>
	</defs>
	<clipPath id="SVGID_12_">
		<use xlink:href="#SVGID_11_"  style="overflow:visible;"/>
	</clipPath>
	<linearGradient id="SVGID_13_" gradientUnits="userSpaceOnUse" x1="1288.1879" y1="1448.7744" x2="2050.3142" y2="1448.7744">
		<stop  offset="0" style="stop-color:#0131B8"/>
		<stop  offset="0.2837" style="stop-color:#0651C8"/>
		<stop  offset="0.9035" style="stop-color:#13A2F0"/>
		<stop  offset="1" style="stop-color:#15AFF7"/>
	</linearGradient>
	<rect x="1541.6" y="1313.5" class="st5" width="437.5" height="270.6"/>
</g>
<g>
	<defs>
		<path id="SVGID_14_" d="M1830.5,1236.5h154.9v-103.3c0-56.8-46.5-103.3-103.3-103.3h-140.2
			C1742.1,1108,1774.1,1182.6,1830.5,1236.5"/>
	</defs>
	<clipPath id="SVGID_15_">
		<use xlink:href="#SVGID_14_"  style="overflow:visible;"/>
	</clipPath>
	<linearGradient id="SVGID_16_" gradientUnits="userSpaceOnUse" x1="1400.813" y1="1133.2322" x2="2128" y2="1133.2322">
		<stop  offset="0" style="stop-color:#0131B8"/>
		<stop  offset="0.2837" style="stop-color:#0651C8"/>
		<stop  offset="0.9035" style="stop-color:#13A2F0"/>
		<stop  offset="1" style="stop-color:#15AFF7"/>
	</linearGradient>
	<rect x="1741.9" y="1029.9" class="st6" width="243.5" height="206.6"/>
</g>
<g>
	<defs>
		<path id="SVGID_17_" d="M1638.6,1236.5h42.8h60.5h88.6c-42.2-60.4-63.3-133-60-206.6h-28.6v-9.9c-62.4-14.6-128.8,14.3-159.6,73.2
			c-20.8,39.7-21.1,84.9-4.6,123.3C1594.8,1229.1,1615.9,1236.5,1638.6,1236.5"/>
	</defs>
	<clipPath id="SVGID_18_">
		<use xlink:href="#SVGID_17_"  style="overflow:visible;"/>
	</clipPath>
	<linearGradient id="SVGID_19_" gradientUnits="userSpaceOnUse" x1="1400.8126" y1="1120.9706" x2="2128.0015" y2="1120.9706">
		<stop  offset="0" style="stop-color:#0131B8"/>
		<stop  offset="0.1569" style="stop-color:#0236BA"/>
		<stop  offset="0.3417" style="stop-color:#0444C2"/>
		<stop  offset="0.5406" style="stop-color:#085CCD"/>
		<stop  offset="0.7496" style="stop-color:#0D7DDE"/>
		<stop  offset="0.9642" style="stop-color:#14A7F3"/>
		<stop  offset="1" style="stop-color:#15AFF7"/>
	</linearGradient>
	<rect x="1561.2" y="1005.4" class="st7" width="269.3" height="231.1"/>
</g>
<g>
	<defs>
		<path id="SVGID_20_" d="M1741.9,1029.9c0.2,78,32.2,152.6,88.6,206.6h-88.6h-60.5h-42.8c-56.8,0-103.3-46.5-103.3-103.3V786.4
			h103.3c56.8,0,103.3,46.5,103.3,103.3V1029.9z"/>
	</defs>
	<clipPath id="SVGID_21_">
		<use xlink:href="#SVGID_20_"  style="overflow:visible;"/>
	</clipPath>
	<linearGradient id="SVGID_22_" gradientUnits="userSpaceOnUse" x1="1682.9071" y1="1313.4996" x2="1682.9071" y2="598.6245">
		<stop  offset="0" style="stop-color:#045304"/>
		<stop  offset="0.1515" style="stop-color:#0D5C05"/>
		<stop  offset="0.3987" style="stop-color:#247407"/>
		<stop  offset="0.7088" style="stop-color:#4A9C0C"/>
		<stop  offset="1" style="stop-color:#73C710"/>
	</linearGradient>
	<rect x="1535.3" y="786.4" class="st8" width="295.2" height="450.1"/>
</g>
<g>
	<defs>
		<path id="SVGID_23_" d="M1815.4,1230.2h-176.8V947.5c0-31.5-25.8-57.3-57.3-57.3h-39.7v-97.5h97c53.3,0,97,43.7,97,97v140.2
			C1735.6,1104.6,1764.5,1176.2,1815.4,1230.2"/>
	</defs>
	<clipPath id="SVGID_24_">
		<use xlink:href="#SVGID_23_"  style="overflow:visible;"/>
	</clipPath>
	<linearGradient id="SVGID_25_" gradientUnits="userSpaceOnUse" x1="1678.5012" y1="1313.4996" x2="1678.5012" y2="598.6229">
		<stop  offset="0" style="stop-color:#045304"/>
		<stop  offset="0.5871" style="stop-color:#489A0B"/>
		<stop  offset="1" style="stop-color:#73C710"/>
	</linearGradient>
	<rect x="1541.6" y="792.7" class="st9" width="273.8" height="437.5"/>
</g>
<g>
	<defs>
		<path id="SVGID_26_" d="M1464.7,1602.4v154.9h-103.3c-56.8,0-103.3-46.5-103.3-103.3v-140.2
			C1336.1,1514,1410.7,1546,1464.7,1602.4"/>
	</defs>
	<clipPath id="SVGID_27_">
		<use xlink:href="#SVGID_26_"  style="overflow:visible;"/>
	</clipPath>
	<linearGradient id="SVGID_28_" gradientUnits="userSpaceOnUse" x1="1361.384" y1="1172.6245" x2="1361.384" y2="1899.8752">
		<stop  offset="0" style="stop-color:#0131B8"/>
		<stop  offset="0.2837" style="stop-color:#0651C8"/>
		<stop  offset="0.9035" style="stop-color:#13A2F0"/>
		<stop  offset="1" style="stop-color:#15AFF7"/>
	</linearGradient>
	<rect x="1258.1" y="1513.8" class="st10" width="206.6" height="243.5"/>
</g>
<g>
	<defs>
		<path id="SVGID_29_" d="M1464.7,1410.5v42.8v60.5v88.6c-60.4-42.2-133-63.3-206.6-60v-28.6h-9.9c-14.6-62.4,14.3-128.8,73.2-159.6
			c39.7-20.8,84.9-21.1,123.3-4.6C1457.2,1366.7,1464.7,1387.7,1464.7,1410.5"/>
	</defs>
	<clipPath id="SVGID_30_">
		<use xlink:href="#SVGID_29_"  style="overflow:visible;"/>
	</clipPath>
	<linearGradient id="SVGID_31_" gradientUnits="userSpaceOnUse" x1="1349.1224" y1="1172.6245" x2="1349.1224" y2="1899.8757">
		<stop  offset="0" style="stop-color:#0131B8"/>
		<stop  offset="0.1569" style="stop-color:#0236BA"/>
		<stop  offset="0.3417" style="stop-color:#0444C2"/>
		<stop  offset="0.5406" style="stop-color:#085CCD"/>
		<stop  offset="0.7496" style="stop-color:#0D7DDE"/>
		<stop  offset="0.9642" style="stop-color:#14A7F3"/>
		<stop  offset="1" style="stop-color:#15AFF7"/>
	</linearGradient>
	<rect x="1233.6" y="1333" class="st11" width="231.1" height="269.3"/>
</g>
<g>
	<defs>
		<path id="SVGID_32_" d="M1258.1,1513.8c78,0.2,152.6,32.2,206.6,88.6v-88.6v-60.5v-42.8c0-56.8-46.5-103.3-103.3-103.3h-346.8
			v103.3c0,56.8,46.5,103.3,103.3,103.3H1258.1z"/>
	</defs>
	<clipPath id="SVGID_33_">
		<use xlink:href="#SVGID_32_"  style="overflow:visible;"/>
	</clipPath>
	<linearGradient id="SVGID_34_" gradientUnits="userSpaceOnUse" x1="1541.688" y1="1454.759" x2="826.7498" y2="1454.759">
		<stop  offset="0" style="stop-color:#045304"/>
		<stop  offset="0.1515" style="stop-color:#0D5C05"/>
		<stop  offset="0.3987" style="stop-color:#247407"/>
		<stop  offset="0.7088" style="stop-color:#4A9C0C"/>
		<stop  offset="1" style="stop-color:#73C710"/>
	</linearGradient>
	<rect x="1014.6" y="1307.2" class="st12" width="450.1" height="295.2"/>
</g>
<g>
	<defs>
		<path id="SVGID_35_" d="M1458.4,1587.2v-176.8h-282.7c-31.5,0-57.3-25.8-57.3-57.3v-39.7h-97.5v97c0,53.3,43.7,97,97,97h140.2
			C1332.8,1507.5,1404.3,1536.3,1458.4,1587.2"/>
	</defs>
	<clipPath id="SVGID_36_">
		<use xlink:href="#SVGID_35_"  style="overflow:visible;"/>
	</clipPath>
	<linearGradient id="SVGID_37_" gradientUnits="userSpaceOnUse" x1="1541.6879" y1="1450.3529" x2="826.7499" y2="1450.3529">
		<stop  offset="0" style="stop-color:#045304"/>
		<stop  offset="0.5871" style="stop-color:#489A0B"/>
		<stop  offset="1" style="stop-color:#73C710"/>
	</linearGradient>
	<rect x="1020.9" y="1313.5" class="st13" width="437.5" height="273.8"/>
</g>
<g>
	<defs>
		<path id="SVGID_38_" d="M1258.1,1029.9h-140.2c-56.8,0-103.3,46.5-103.3,103.3v103.3h154.9
			C1231.8,1191.8,1261.3,1122.9,1258.1,1029.9"/>
	</defs>
	<clipPath id="SVGID_39_">
		<use xlink:href="#SVGID_38_"  style="overflow:visible;"/>
	</clipPath>
	<linearGradient id="SVGID_40_" gradientUnits="userSpaceOnUse" x1="1541.6868" y1="1133.2322" x2="826.7501" y2="1133.2322">
		<stop  offset="0" style="stop-color:#045304"/>
		<stop  offset="0.1515" style="stop-color:#0D5C05"/>
		<stop  offset="0.3987" style="stop-color:#247407"/>
		<stop  offset="0.7088" style="stop-color:#4A9C0C"/>
		<stop  offset="1" style="stop-color:#73C710"/>
	</linearGradient>
	<rect x="1014.6" y="1029.9" class="st14" width="246.7" height="206.6"/>
</g>
<g>
	<defs>
		<path id="SVGID_41_" d="M1252,1036.1h-134.1c-53.4,0-97.1,43.7-97.1,97.1v97.1h97.6v-30.1c0-36.8,30.1-67,67-67h53.2
			C1249,1102.3,1252.7,1069.2,1252,1036.1"/>
	</defs>
	<clipPath id="SVGID_42_">
		<use xlink:href="#SVGID_41_"  style="overflow:visible;"/>
	</clipPath>
	<linearGradient id="SVGID_43_" gradientUnits="userSpaceOnUse" x1="1541.6875" y1="1133.2321" x2="826.749" y2="1133.2321">
		<stop  offset="0" style="stop-color:#045304"/>
		<stop  offset="0.7787" style="stop-color:#5AAD0D"/>
		<stop  offset="1" style="stop-color:#73C710"/>
	</linearGradient>
	<rect x="1020.8" y="1036.1" class="st15" width="231.9" height="194.2"/>
</g>
<g>
	<defs>
		<path id="SVGID_44_" d="M1258.1,1020v9.9h-28.6c3.3,73.6-17.8,146.2-60,206.6h191.9h0c0.8,0,1.7,0,2.5,0l0.2,0
			c0.8,0,1.7-0.1,2.5-0.1c0.8,0,1.7-0.1,2.5-0.2l0.2,0c0.8-0.1,1.6-0.1,2.5-0.2l0.1,0c0.8-0.1,1.6-0.2,2.4-0.3l0.3,0
			c0.8-0.1,1.5-0.2,2.3-0.3l0.3,0c0.7-0.1,1.5-0.2,2.2-0.4l0.4-0.1c0.7-0.1,1.4-0.3,2.1-0.4l0.4-0.1c0.7-0.1,1.4-0.3,2.1-0.5
			l0.5-0.1c0.7-0.2,1.3-0.3,2-0.5l0.6-0.1c0.6-0.2,1.3-0.3,1.9-0.5l0.6-0.2c0.6-0.2,1.2-0.3,1.7-0.5c0.3-0.1,0.5-0.2,0.8-0.2
			c0.5-0.2,1.1-0.4,1.6-0.5c0.3-0.1,0.5-0.2,0.8-0.3c0.5-0.2,1-0.4,1.5-0.5c0.3-0.1,0.7-0.2,1-0.4c0.5-0.2,1-0.4,1.4-0.5
			c0.3-0.1,0.6-0.2,0.9-0.3c0.4-0.2,0.9-0.4,1.3-0.5c0.4-0.2,0.8-0.3,1.2-0.5c0.4-0.2,0.8-0.3,1.2-0.5c0.4-0.2,0.7-0.3,1.1-0.5
			c0.4-0.2,0.7-0.3,1.1-0.5c0.4-0.2,0.9-0.4,1.3-0.7c0.3-0.1,0.6-0.3,0.8-0.4c0.5-0.3,1.1-0.5,1.6-0.8c0.2-0.1,0.4-0.2,0.6-0.3
			c0.5-0.3,1-0.5,1.5-0.8l0.5-0.3c0.7-0.4,1.4-0.8,2-1.2l0.3-0.2c0.5-0.3,1.1-0.6,1.6-1l0.1-0.1c0.8-0.5,1.6-1,2.4-1.5l0.1,0
			c1.4-0.9,2.7-1.9,4.1-2.8c16.5-38.4,16.2-83.6-4.6-123.3C1386.9,1034.2,1320.5,1005.4,1258.1,1020"/>
	</defs>
	<clipPath id="SVGID_45_">
		<use xlink:href="#SVGID_44_"  style="overflow:visible;"/>
	</clipPath>
	<linearGradient id="SVGID_46_" gradientUnits="userSpaceOnUse" x1="1541.6879" y1="1120.9706" x2="826.7502" y2="1120.9706">
		<stop  offset="0" style="stop-color:#045304"/>
		<stop  offset="0.2233" style="stop-color:#075604"/>
		<stop  offset="0.4043" style="stop-color:#116005"/>
		<stop  offset="0.5704" style="stop-color:#217107"/>
		<stop  offset="0.7277" style="stop-color:#38890A"/>
		<stop  offset="0.8773" style="stop-color:#55A80D"/>
		<stop  offset="1" style="stop-color:#73C710"/>
	</linearGradient>
	<rect x="1169.5" y="1005.4" class="st16" width="269.3" height="231.1"/>
</g>
<g>
	<defs>
		<path id="SVGID_47_" d="M1169.5,1236.5h191.9c56.8,0,103.3-46.5,103.3-103.3v-42.8v-60.5V786.4h-103.3
			c-56.8,0-103.3,46.5-103.3,103.3v140.2C1261.3,1122.9,1231.8,1191.8,1169.5,1236.5"/>
	</defs>
	<use xlink:href="#SVGID_47_"  style="overflow:visible;fill-rule:evenodd;clip-rule:evenodd;fill:#AA0911;"/>
	<clipPath id="SVGID_48_">
		<use xlink:href="#SVGID_47_"  style="overflow:visible;"/>
	</clipPath>
	<rect x="1169.5" y="786.4" class="st17" width="295.2" height="450.1"/>
</g>
<g>
	<defs>
		<path id="SVGID_49_" d="M1187.8,1230.2h173.6V941.9c0-28.4,23.2-51.6,51.6-51.6h45.4v-97.5h-97c-53.3,0-97,43.7-97,97v140.1
			c2,58.4-8.6,117.5-43.9,165.4C1210.9,1208.2,1200,1219.9,1187.8,1230.2"/>
	</defs>
	<clipPath id="SVGID_50_">
		<use xlink:href="#SVGID_49_"  style="overflow:visible;"/>
	</clipPath>
	<rect x="1187.8" y="792.7" class="st18" width="270.6" height="437.5"/>
</g>
<rect x="954" y="1837.1" class="st19" width="1092" height="208.3"/>
<text transform="matrix(1 0 0 1 961.335 1902.5078)" class="st20 st21 st22">Klinik Gloria putra Abadi</text>
<rect x="2080.1" y="1968.3" class="st23" width="3.9" height="0"/>
</svg>
